<svg xmlns="http://www.w3.org/2000/svg" viewBox="0 0 800 560" fill="none">
<title>Nina accompagna Rocco lungo il ruscello</title>
<defs><linearGradient id="sky" x2="0" y2="560" gradientUnits="userSpaceOnUse"><stop stop-color="#153e38"/><stop offset="1" stop-color="#587761"/></linearGradient></defs>
<path d="M0 0H800V560H0Z" fill="url(#sky)"/><ellipse cx="83" cy="91" rx="2" ry="2" fill="#d9d2a5"/><ellipse cx="209" cy="56" rx="2" ry="2" fill="#d9d2a5"/><ellipse cx="359" cy="134" rx="2" ry="2" fill="#d9d2a5"/><ellipse cx="710" cy="79" rx="2" ry="2" fill="#d9d2a5"/><ellipse cx="461" cy="48" rx="1.5" ry="1.5" fill="#d9d2a5"/><ellipse cx="686" cy="231" rx="1.5" ry="1.5" fill="#d9d2a5"/><ellipse cx="292" cy="199" rx="1.5" ry="1.5" fill="#d9d2a5"/><ellipse cx="117" cy="246" rx="2" ry="2" fill="#d9d2a5"/><g opacity=".09"><ellipse cx="595" cy="117" rx="92" ry="92" fill="#edd88e"/><ellipse cx="595" cy="117" rx="55.199999999999996" ry="55.199999999999996" fill="#edd88e"/></g><path d="M605 65a52 52 0 1 0 16 92 56 56 0 0 1-16-92Z" fill="#f5e5b5"/><path d="M0 341C124 238 231 262 364 320 519 388 641 209 800 226V560H0Z" fill="#64816a"/><path d="M0 398C137 382 219 313 341 340 539 384 643 394 800 333V560H0Z" fill="#365f4c"/><path d="M0 470C165 396 286 502 449 460 599 421 686 448 800 477V560H0Z" fill="#214739"/><path d="M480 330C321 374 623 408 437 458 367 483 318 514 358 560H509C459 523 489 498 554 472 753 396 439 380 521 333Z" fill="#73938a"/><path d="M453 380 490 381M487 436 540 432M425 501 468 495" fill="none" stroke="#bec5a3" stroke-width="3" stroke-linecap="round" stroke-linejoin="round"/><g transform="translate(675 80) scale(0.65 0.65)"><path d="M0 440Q21 285 0 180M8 309-45 266M9 272 50 224" fill="none" stroke="#233f33" stroke-width="24" stroke-linecap="round" stroke-linejoin="round"/><path d="M-110 249C-140 210-116 165-80 160-84 115-35 85 4 111 42 82 95 107 91 150 150 165 155 220 115 249 100 299 42 300 10 277-35 309-93 290-110 249Z" fill="#234d3d"/><path d="M-92 222Q-104 180-65 175-60 128-20 131" fill="none" stroke="#39604a" stroke-width="7" stroke-linecap="round" stroke-linejoin="round"/><path d="M0 431Q-38 456-93 449M0 430Q35 461 90 462" fill="none" stroke="#233f33" stroke-width="16" stroke-linecap="round" stroke-linejoin="round"/></g><g transform="translate(150 485) scale(1.3 1.3)"><path d="M0 0Q4-45 0-104" fill="none" stroke="#64816a" stroke-width="6" stroke-linecap="round" stroke-linejoin="round"/><ellipse cx="-26" cy="-109" rx="35" ry="25" fill="#4c7357"/><ellipse cx="26" cy="-109" rx="35" ry="25" fill="#4c7357"/><ellipse cx="0" cy="-134" rx="35" ry="25" fill="#4c7357"/><path d="M0-103-26-113M0-103 27-113M0-103 0-136" fill="none" stroke="#78916b" stroke-width="2" stroke-linecap="round" stroke-linejoin="round"/></g><g transform="translate(320 350) scale(1.5 1.5)"><g opacity=".09"><ellipse cx="0" cy="10" rx="45" ry="45" fill="#edd88e"/><ellipse cx="0" cy="10" rx="27.0" ry="27.0" fill="#edd88e"/></g><ellipse cx="-9" cy="-5" rx="13" ry="7" fill="#8d9f87"/><ellipse cx="9" cy="-5" rx="13" ry="7" fill="#b4bea0"/><ellipse cx="0" cy="9" rx="10" ry="16" fill="#edd88e"/><ellipse cx="0" cy="-9" rx="9" ry="9" fill="#344c3d"/><path d="M-4-16-9-24M4-16 9-24" fill="none" stroke="#344c3d" stroke-width="2" stroke-linecap="round" stroke-linejoin="round"/></g><g transform="translate(395 438) scale(1.2 1.2)"><ellipse cx="0" cy="0" rx="26" ry="13" fill="#657d53"/><ellipse cx="23" cy="-10" rx="13" ry="13" fill="#839565"/><ellipse cx="28" cy="-13" rx="2" ry="2" fill="#253e31"/><path d="M-19 5-34-16-43 18M-3 7-18-13-27 20M14-2 26 18 42 18M28-21 43-42M20-22 21-46" fill="none" stroke="#5b714b" stroke-width="4" stroke-linecap="round" stroke-linejoin="round"/></g><path d="M61 560 70 459M66 510 40 480M68 492 93 457M724 560 716 460M720 510 746 479M718 494 695 471M118 560 112 520M682 560 692 521" fill="none" stroke="#66856a" stroke-width="3" stroke-linecap="round" stroke-linejoin="round"/>
</svg>
