<svg xmlns="http://www.w3.org/2000/svg" viewBox="0 0 800 560" fill="none">
<title>Due amici guardano le stelle, sul sasso</title>
<defs><linearGradient id="sky" x2="0" y2="560" gradientUnits="userSpaceOnUse"><stop stop-color="#153e38"/><stop offset="1" stop-color="#587761"/></linearGradient></defs>
<path d="M0 0H800V560H0Z" fill="url(#sky)"/><ellipse cx="83" cy="91" rx="2" ry="2" fill="#d9d2a5"/><ellipse cx="209" cy="56" rx="2" ry="2" fill="#d9d2a5"/><ellipse cx="359" cy="134" rx="2" ry="2" fill="#d9d2a5"/><ellipse cx="710" cy="79" rx="2" ry="2" fill="#d9d2a5"/><ellipse cx="461" cy="48" rx="1.5" ry="1.5" fill="#d9d2a5"/><ellipse cx="686" cy="231" rx="1.5" ry="1.5" fill="#d9d2a5"/><ellipse cx="292" cy="199" rx="1.5" ry="1.5" fill="#d9d2a5"/><ellipse cx="117" cy="246" rx="2" ry="2" fill="#d9d2a5"/><g opacity=".09"><ellipse cx="595" cy="117" rx="92" ry="92" fill="#edd88e"/><ellipse cx="595" cy="117" rx="55.199999999999996" ry="55.199999999999996" fill="#edd88e"/></g><path d="M605 65a52 52 0 1 0 16 92 56 56 0 0 1-16-92Z" fill="#f5e5b5"/><path d="M0 341C124 238 231 262 364 320 519 388 641 209 800 226V560H0Z" fill="#64816a"/><path d="M0 398C137 382 219 313 341 340 539 384 643 394 800 333V560H0Z" fill="#365f4c"/><path d="M0 470C165 396 286 502 449 460 599 421 686 448 800 477V560H0Z" fill="#214739"/><path d="M480 330C321 374 623 408 437 458 367 483 318 514 358 560H509C459 523 489 498 554 472 753 396 439 380 521 333Z" fill="#73938a"/><path d="M453 380 490 381M487 436 540 432M425 501 468 495" fill="none" stroke="#bec5a3" stroke-width="3" stroke-linecap="round" stroke-linejoin="round"/><g transform="translate(335 459) scale(1.4 1.4)"><path d="M-117 0Q-100-58-57-51-30-83 22-63 83-66 112-7 35 21-117 0Z" fill="#869080"/><path d="M-83-27Q-39-56 4-47" fill="none" stroke="#a5ac93" stroke-width="4" stroke-linecap="round" stroke-linejoin="round"/></g><g transform="translate(289 361) scale(1.25 1.25)"><ellipse cx="-9" cy="-5" rx="13" ry="7" fill="#8d9f87"/><ellipse cx="9" cy="-5" rx="13" ry="7" fill="#b4bea0"/><ellipse cx="0" cy="9" rx="10" ry="16" fill="#788571"/><ellipse cx="0" cy="-9" rx="9" ry="9" fill="#344c3d"/><path d="M-4-16-9-24M4-16 9-24" fill="none" stroke="#344c3d" stroke-width="2" stroke-linecap="round" stroke-linejoin="round"/></g><g transform="translate(382 371) scale(1.25 1.25)"><ellipse cx="0" cy="0" rx="26" ry="13" fill="#657d53"/><ellipse cx="23" cy="-10" rx="13" ry="13" fill="#839565"/><ellipse cx="28" cy="-13" rx="2" ry="2" fill="#253e31"/><path d="M-19 5-34-16-43 18M-3 7-18-13-27 20M14-2 26 18 42 18M28-21 43-42M20-22 21-46" fill="none" stroke="#5b714b" stroke-width="4" stroke-linecap="round" stroke-linejoin="round"/></g><path d="M61 560 70 459M66 510 40 480M68 492 93 457M724 560 716 460M720 510 746 479M718 494 695 471M118 560 112 520M682 560 692 521" fill="none" stroke="#66856a" stroke-width="3" stroke-linecap="round" stroke-linejoin="round"/>
</svg>
