<svg xmlns="http://www.w3.org/2000/svg" viewBox="0 0 800 560" fill="none">
<title>Tilde guida il piccolo riccio lungo la salita sicura</title>
<defs><linearGradient id="sky" x2="0" y2="560" gradientUnits="userSpaceOnUse"><stop stop-color="#153e38"/><stop offset="1" stop-color="#587761"/></linearGradient></defs>
<path d="M0 0H800V560H0Z" fill="#b99b73"/><path d="M0 0H800V100C597 59 279 163 0 84Z" fill="#607258"/><path d="M0 90C279 169 597 75 800 100V122C570 91 252 184 0 118Z" fill="#899571"/><path d="M146 127l16 53-22 36m18-48 41 25m378-51-21 57 13 33m-10-49-26 18M311 138l9 30" fill="none" stroke="#927651" stroke-width="5" stroke-linecap="round" stroke-linejoin="round"/><ellipse cx="96" cy="321" rx="7" ry="3" fill="#9d7e56"/><ellipse cx="628" cy="255" rx="7" ry="3" fill="#9d7e56"/><ellipse cx="557" cy="491" rx="7" ry="3" fill="#9d7e56"/><ellipse cx="105" cy="481" rx="7" ry="3" fill="#9d7e56"/><ellipse cx="694" cy="462" rx="7" ry="3" fill="#9d7e56"/><ellipse cx="298" cy="204" rx="7" ry="3" fill="#9d7e56"/><ellipse cx="730" cy="202" rx="7" ry="3" fill="#9d7e56"/><ellipse cx="74" cy="224" rx="7" ry="3" fill="#9d7e56"/><path d="M578 107 607 160 581 208 610 256 584 302 600 342" fill="none" stroke="#69533f" stroke-width="26" stroke-linecap="round" stroke-linejoin="round"/><path d="M603 356Q506 421 391 374 279 328 213 135" fill="none" stroke="#6b553f" stroke-width="82" stroke-linecap="round" stroke-linejoin="round"/><g transform="translate(400 396) scale(-1.25 1.25)"><path d="M-27 14C-46 8-48-15-40-36-34-57-13-65 2-53 21-42 27-22 28-7L47 1 29 14Z" fill="#756451"/><path d="M29-7 47 1 29 8Z" fill="#c9947b"/><ellipse cx="21" cy="-18" rx="2.5" ry="2.5" fill="#332f29"/><path d="M-30 14H-44M9 14H27" fill="none" stroke="#4f463a" stroke-width="6" stroke-linecap="round" stroke-linejoin="round"/><g stroke="#d3bf8d" stroke-width="2.5"><ellipse cx="8" cy="-20" rx="9" ry="9" fill="none"/><ellipse cx="27" cy="-20" rx="8" ry="8" fill="none"/><path d="M16-22H19M-1-22-15-28" fill="none"/></g></g><g transform="translate(521 391) scale(0.8 0.8)"><path d="M-39 13-42-3-34-9-38-20-23-22-20-34-8-30 1-40 11-30 24-33 28-20 38-16 36 12Z" fill="#67513f"/><path d="M20 0Q27-15 38-8L57 11H12Z" fill="#c7ab80"/><ellipse cx="40" cy="2" rx="2" ry="2" fill="#332f29"/><path d="M-27 13H-37M25 13H36" fill="none" stroke="#564633" stroke-width="5" stroke-linecap="round" stroke-linejoin="round"/></g><g transform="translate(535 64) scale(0.55 0.55)"><g opacity=".09"><ellipse cx="0" cy="10" rx="45" ry="45" fill="#edd88e"/><ellipse cx="0" cy="10" rx="27.0" ry="27.0" fill="#edd88e"/></g><ellipse cx="-9" cy="-5" rx="13" ry="7" fill="#8d9f87"/><ellipse cx="9" cy="-5" rx="13" ry="7" fill="#b4bea0"/><ellipse cx="0" cy="9" rx="10" ry="16" fill="#edd88e"/><ellipse cx="0" cy="-9" rx="9" ry="9" fill="#344c3d"/><path d="M-4-16-9-24M4-16 9-24" fill="none" stroke="#344c3d" stroke-width="2" stroke-linecap="round" stroke-linejoin="round"/></g><g transform="translate(583 64) scale(0.55 0.55)"><g opacity=".09"><ellipse cx="0" cy="10" rx="45" ry="45" fill="#edd88e"/><ellipse cx="0" cy="10" rx="27.0" ry="27.0" fill="#edd88e"/></g><ellipse cx="-9" cy="-5" rx="13" ry="7" fill="#8d9f87"/><ellipse cx="9" cy="-5" rx="13" ry="7" fill="#b4bea0"/><ellipse cx="0" cy="9" rx="10" ry="16" fill="#edd88e"/><ellipse cx="0" cy="-9" rx="9" ry="9" fill="#344c3d"/><path d="M-4-16-9-24M4-16 9-24" fill="none" stroke="#344c3d" stroke-width="2" stroke-linecap="round" stroke-linejoin="round"/></g><g transform="translate(643 64) scale(0.55 0.55)"><g opacity=".09"><ellipse cx="0" cy="10" rx="45" ry="45" fill="#edd88e"/><ellipse cx="0" cy="10" rx="27.0" ry="27.0" fill="#edd88e"/></g><ellipse cx="-9" cy="-5" rx="13" ry="7" fill="#8d9f87"/><ellipse cx="9" cy="-5" rx="13" ry="7" fill="#b4bea0"/><ellipse cx="0" cy="9" rx="10" ry="16" fill="#edd88e"/><ellipse cx="0" cy="-9" rx="9" ry="9" fill="#344c3d"/><path d="M-4-16-9-24M4-16 9-24" fill="none" stroke="#344c3d" stroke-width="2" stroke-linecap="round" stroke-linejoin="round"/></g>
</svg>
