<svg xmlns="http://www.w3.org/2000/svg" viewBox="0 0 800 560" fill="none">
<title>Tre colpi dal letto, tre colpi dalla trave</title>
<defs><linearGradient id="sky" x2="0" y2="560" gradientUnits="userSpaceOnUse"><stop stop-color="#153e38"/><stop offset="1" stop-color="#587761"/></linearGradient></defs>
<path d="M0 0H800V560H0Z" fill="url(#sky)"/><path d="M40 262 400 44 760 262Z" fill="#1a392f"/><path d="M110 250 400 78 690 250Z" fill="#0f231c"/><path d="M262 150H538" fill="none" stroke="#3a5a4b" stroke-width="14" stroke-linecap="round" stroke-linejoin="round"/><path d="M40 250H760V270H40Z" fill="#4a3e30"/><path d="M40 270H760V560H40Z" fill="#2c3f35"/><g opacity=".09"><ellipse cx="600" cy="400" rx="110" ry="110" fill="#edd88e"/><ellipse cx="600" cy="400" rx="66.0" ry="66.0" fill="#edd88e"/></g><path d="M584 470H616L608 420H592Z" fill="#6d5f48"/><path d="M570 420H630L615 385H585Z" fill="#efdaa0"/><path d="M150 450H470V510H150Z" fill="#6f7d62"/><ellipse cx="200" cy="445" rx="40" ry="16" fill="#c9c1a0"/><path d="M150 510V545M470 510V545" fill="none" stroke="#4a3e30" stroke-width="8" stroke-linecap="round" stroke-linejoin="round"/><g transform="translate(400 192) scale(1.25 1.25)"><path d="M-4-24-5-36M4-24 5-36" fill="none" stroke="#75675a" stroke-width="3" stroke-linecap="round" stroke-linejoin="round"/><ellipse cx="0" cy="0" rx="15" ry="25" fill="#5b4f45"/><path d="M0-22V20" fill="none" stroke="#4a4038" stroke-width="2" stroke-linecap="round" stroke-linejoin="round"/><ellipse cx="0" cy="22" rx="8" ry="8" fill="#75675a"/><path d="M-7 26-9 38-1 29Z" fill="#75675a"/><path d="M7 26 9 38 1 29Z" fill="#75675a"/></g><g transform="translate(300 450) scale(1 1)"><path d="M-14 0V-52M14 0V-52" fill="none" stroke="#6b7a63" stroke-width="16" stroke-linecap="round" stroke-linejoin="round"/><path d="M-26-50Q-30-110 0-116 30-110 26-50Z" fill="#8f9a78"/><path d="M14-104Q30-140 22-170" fill="none" stroke="#c9aa80" stroke-width="11" stroke-linecap="round" stroke-linejoin="round"/><ellipse cx="22" cy="-172" rx="9" ry="9" fill="#c9aa80"/><path d="M-16-104Q-34-86-36-66" fill="none" stroke="#c9aa80" stroke-width="11" stroke-linecap="round" stroke-linejoin="round"/><ellipse cx="0" cy="-136" rx="21" ry="21" fill="#c9aa80"/><path d="M-21-138Q-20-162 0-160 20-162 21-138Q12-150 0-148-12-150-21-138Z" fill="#4b4938"/></g><g opacity=".5"><path d="M338 290Q352 284 366 290" fill="none" stroke="#edd88e" stroke-width="2" stroke-linecap="round" stroke-linejoin="round"/></g><g opacity=".5"><path d="M344 306Q358 300 372 306" fill="none" stroke="#edd88e" stroke-width="2" stroke-linecap="round" stroke-linejoin="round"/></g><g opacity=".5"><path d="M350 322Q364 316 378 322" fill="none" stroke="#edd88e" stroke-width="2" stroke-linecap="round" stroke-linejoin="round"/></g><g opacity=".5"><path d="M430 226Q444 220 458 226" fill="none" stroke="#edd88e" stroke-width="2" stroke-linecap="round" stroke-linejoin="round"/></g><g opacity=".5"><path d="M436 236Q450 230 464 236" fill="none" stroke="#edd88e" stroke-width="2" stroke-linecap="round" stroke-linejoin="round"/></g><g opacity=".5"><path d="M442 246Q456 240 470 246" fill="none" stroke="#edd88e" stroke-width="2" stroke-linecap="round" stroke-linejoin="round"/></g>
</svg>
